<?xml version="1.0"?>
<svg xmlns="http://www.w3.org/2000/svg" height="512px" viewBox="0 0 480 480" width="512px" class=""><g><path d="m240 272c44.183594 0 80-35.816406 80-80s-35.816406-80-80-80-80 35.816406-80 80c.046875 44.164062 35.835938 79.953125 80 80zm0-144c35.347656 0 64 28.652344 64 64s-28.652344 64-64 64-64-28.652344-64-64c.039062-35.328125 28.671875-63.960938 64-64zm0 0" data-original="#000000" class="active-path" data-old_color="#3a7bd5" fill="#3a7bd5"/><path d="m232 224c2.121094 0 4.15625-.84375 5.65625-2.34375l48-48-11.3125-11.3125-42.34375 42.34375-18.34375-18.34375-11.3125 11.3125 24 24c1.5 1.5 3.535156 2.34375 5.65625 2.34375zm0 0" data-original="#000000" class="active-path" data-old_color="#3a7bd5" fill="#3a7bd5"/><path d="m440 0h-400c-22.082031.0273438-39.9726562 17.917969-40 40v304c.0273438 22.082031 17.917969 39.972656 40 40h134.9375l-6 48h-16.9375c-13.253906 0-24 10.746094-24 24s10.746094 24 24 24h176c13.253906 0 24-10.746094 24-24s-10.746094-24-24-24h-16.9375l-6-48h134.9375c22.082031-.027344 39.972656-17.917969 40-40v-304c-.027344-22.082031-17.917969-39.9726562-40-40zm-400 16h400c13.253906 0 24 10.746094 24 24v24h-448v-24c0-13.253906 10.746094-24 24-24zm424 64v224h-448v-224zm-128 376c0 4.417969-3.582031 8-8 8h-176c-4.417969 0-8-3.582031-8-8s3.582031-8 8-8h176c4.417969 0 8 3.582031 8 8zm-41.0625-24h-109.875l6-48h97.875zm145.0625-64h-400c-13.253906 0-24-10.746094-24-24v-24h448v24c0 13.253906-10.746094 24-24 24zm0 0" data-original="#000000" class="active-path" data-old_color="#3a7bd5" fill="#3a7bd5"/><path d="m416 336h16v16h-16zm0 0" data-original="#000000" class="active-path" data-old_color="#3a7bd5" fill="#3a7bd5"/><path d="m48 32h16v16h-16zm0 0" data-original="#000000" class="active-path" data-old_color="#3a7bd5" fill="#3a7bd5"/><path d="m80 32h16v16h-16zm0 0" data-original="#000000" class="active-path" data-old_color="#3a7bd5" fill="#3a7bd5"/><path d="m112 32h16v16h-16zm0 0" data-original="#000000" class="active-path" data-old_color="#3a7bd5" fill="#3a7bd5"/></g> </svg>
