<svg xmlns="http://www.w3.org/2000/svg" width="288.937" height="288.938"><path d="M207.967 272.338c-22.815 12.03-46.076 16.6-73.897 16.6-68.084 0-125.788-49.793-125.788-129.508C8.283 73.9 67.641 0 159.833 0c72.241 0 120.822 50.642 120.822 119.973 0 62.272-34.88 98.811-73.899 98.811-16.634 0-31.976-11.219-30.729-36.538h-1.658c-14.535 24.507-33.636 36.538-58.549 36.538-24.07 0-44.826-19.533-44.826-52.325 0-51.485 40.669-98.373 98.373-98.373 17.846 0 33.639 3.717 44.418 8.723l-14.096 75.12c-6.221 31.575-1.258 46.11 12.443 46.511 21.19.406 44.857-27.824 44.857-75.993 0-60.176-36.138-103.381-100.506-103.381-67.644 0-124.538 53.58-124.538 137.861 0 69.337 45.267 112.096 106.687 112.096 23.667 0 45.676-4.997 62.71-14.535l6.625 17.85zM185.146 92.964c-4.156-1.218-11.224-2.876-20.762-2.876-36.538 0-66.02 34.448-66.02 74.717 0 18.286 9.129 31.575 27.415 31.575 24.07 0 46.073-30.729 50.642-56.494l8.725-46.922z" fill="#030303"/></svg>