<?xml version="1.0"?>
<svg xmlns="http://www.w3.org/2000/svg" xmlns:xlink="http://www.w3.org/1999/xlink" version="1.1" id="Capa_1" x="0px" y="0px" viewBox="0 0 512 512" style="enable-background:new 0 0 512 512;" xml:space="preserve" width="512px" height="512px" class=""><g><g>
	<g>
		<g>
			<path d="M480,341.333h-74.667C358.281,341.333,320,303.052,320,256s38.281-85.333,85.333-85.333H480     c5.896,0,10.667-4.771,10.667-10.667v-53.333C490.667,83.135,471.531,64,448,64H42.667C19.135,64,0,83.135,0,106.667v298.667     C0,428.865,19.135,448,42.667,448H448c23.531,0,42.667-19.135,42.667-42.667V352C490.667,346.104,485.896,341.333,480,341.333z" data-original="#000000" class="active-path" data-old_color="#3a7bd5" fill="#3a7bd5"/>
			<path d="M480,192h-74.667c-35.292,0-64,28.708-64,64s28.708,64,64,64H480c17.646,0,32-14.354,32-32v-64     C512,206.354,497.646,192,480,192z M405.333,277.333C393.573,277.333,384,267.76,384,256s9.573-21.333,21.333-21.333     c11.76,0,21.333,9.573,21.333,21.333S417.094,277.333,405.333,277.333z" data-original="#000000" class="active-path" data-old_color="#3a7bd5" fill="#3a7bd5"/>
		</g>
	</g>
</g></g> </svg>
