<?xml version="1.0"?>
<svg xmlns="http://www.w3.org/2000/svg" height="512px" viewBox="0 0 496 496" width="512px"><path d="m472 80h-88v-32c0-2.472656-1.183594-4.601562-2.945312-6.0625l.074218-.082031-48-40-.074218.082031c-1.382813-1.160156-3.101563-1.9375-5.054688-1.9375h-208c-4.425781 0-8 3.574219-8 8v72h-88c-13.230469 0-24 10.769531-24 24v272c0 13.230469 10.769531 24 24 24h184v32h-48c-22.054688 0-40 17.945312-40 40v16c0 4.425781 3.574219 8 8 8h240c4.425781 0 8-3.574219 8-8v-16c0-22.054688-17.945312-40-40-40h-48v-32h184c13.230469 0 24-10.769531 24-24v-272c0-13.230469-10.769531-24-24-24zm-136-54.910156 17.894531 14.910156h-17.894531zm-208-9.089844h192v32c0 4.425781 3.574219 8 8 8h40v264h-240zm248 320c4.425781 0 8-3.574219 8-8v-200h64v224h-400v-224h64v200c0 4.425781 3.574219 8 8 8zm-16 136v8h-224v-8c0-13.230469 10.769531-24 24-24h176c13.230469 0 24 10.769531 24 24zm-88-40h-48v-32h48zm208-56c0 4.414062-3.585938 8-8 8h-448c-4.414062 0-8-3.585938-8-8v-272c0-4.414062 3.585938-8 8-8h88v16h-72c-4.425781 0-8 3.574219-8 8v240c0 4.425781 3.574219 8 8 8h416c4.425781 0 8-3.574219 8-8v-240c0-4.425781-3.574219-8-8-8h-72v-16h88c4.414062 0 8 3.585938 8 8zm0 0" fill="#bca474"/><path d="m215.144531 85.976562c5.457031-5.746093 8.855469-13.449218 8.855469-21.976562 0-17.648438-14.351562-32-32-32s-32 14.351562-32 32c0 8.527344 3.398438 16.230469 8.855469 21.976562-14.808594 8.183594-24.855469 23.945313-24.855469 42.023438v24c0 4.425781 3.574219 8 8 8h80c4.425781 0 8-3.574219 8-8v-24c0-18.078125-10.046875-33.839844-24.855469-42.023438zm-39.144531-21.976562c0-8.824219 7.175781-16 16-16s16 7.175781 16 16-7.175781 16-16 16-16-7.175781-16-16zm48 80h-64v-16c0-17.648438 14.351562-32 32-32s32 14.351562 32 32zm0 0" fill="#bca474"/><path d="m256 144h96v16h-96zm0 0" fill="#bca474"/><path d="m256 112h96v16h-96zm0 0" fill="#bca474"/><path d="m256 80h32v16h-32zm0 0" fill="#bca474"/><path d="m215.144531 229.976562c5.457031-5.746093 8.855469-13.449218 8.855469-21.976562 0-17.648438-14.351562-32-32-32s-32 14.351562-32 32c0 8.527344 3.398438 16.230469 8.855469 21.976562-14.808594 8.183594-24.855469 23.945313-24.855469 42.023438v24c0 4.425781 3.574219 8 8 8h80c4.425781 0 8-3.574219 8-8v-24c0-18.078125-10.046875-33.839844-24.855469-42.023438zm-39.144531-21.976562c0-8.824219 7.175781-16 16-16s16 7.175781 16 16-7.175781 16-16 16-16-7.175781-16-16zm48 80h-64v-16c0-17.648438 14.351562-32 32-32s32 14.351562 32 32zm0 0" fill="#bca474"/><path d="m256 288h96v16h-96zm0 0" fill="#bca474"/><path d="m256 256h96v16h-96zm0 0" fill="#bca474"/><path d="m256 224h32v16h-32zm0 0" fill="#bca474"/></svg>
