<?xml version="1.0"?>
<svg xmlns="http://www.w3.org/2000/svg" xmlns:xlink="http://www.w3.org/1999/xlink" version="1.1" id="Layer_1" x="0px" y="0px" viewBox="0 0 64 64" enable-background="new 0 0 64 64" xml:space="preserve" width="512px" height="512px" class=""><g><path id="Aircraft_1_" d="M64.0001526,7.2170501c0-1.9278002-0.75-3.7398-2.1113167-5.1026001  C60.5470352,0.77075,58.6886368-0.00025,56.7901535-0.00025c-1.9248161,0-3.7353172,0.751-5.0966187,2.1147001l-9.0303001,9.0391006  L8.4132376,2.3752501c-1.5166006-0.3882-3.1426005,0.0585999-4.2480855,1.165L1.6105373,6.0959501  c-0.5762,0.5776-0.8555,1.4047999-0.7461,2.2114c0.1074,0.8065996,0.5937145,1.5303001,1.3017144,1.9370003l26.4267864,15.1176987  l-13.7324009,15.767601l-8.2089996-1.9244003c-1.5156999-0.3558998-3.0761998,0.089901-4.1738997,1.1915016l-1.6982,1.7000999  c-0.6348,0.6329002-0.9052854,1.5351982-0.7246,2.4116974c0.1797,0.8789024,0.7832,1.6015015,1.6133145,1.9326019  l8.1600857,3.2684975c0.6591997,2.5845032,2.1816998,4.1177025,4.5341997,4.5674019l3.1953001,7.9936981  c0.3428001,0.8623009,1.0898991,1.4878006,1.9951,1.6718025c0.1865997,0.0386009,0.3740997,0.0577011,0.5595989,0.0577011  c0.7187996,0,1.4150009-0.2837029,1.9326-0.8037033l1.6231155-1.6240997  c1.0878849-1.0878983,1.5272846-2.6327972,1.1766853-4.1327972l-1.9286861-8.2466011l15.7490025-13.7465019l15.0107841,26.3017006  c0.4277,0.7437019,1.1884995,1.2554016,2.0370979,1.3692017c0.8485985,0.1123009,1.7187004-0.1807022,2.3251991-0.7872009  l2.4736023-2.4785004c1.0761986-1.0756989,1.5098-2.6605988,1.1327972-4.1362l-8.785099-34.3568993l9.0293007-9.0405998  C63.2501526,10.9548502,64.0001526,9.1432505,64.0001526,7.2170501z M50.6388359,20.7511501l9.0683174,35.4595032  c0.2031822,0.794899-0.0302162,1.6479988-0.6103172,2.2285004l-2.472683,2.4770966  c-0.1689186,0.1689034-0.4169998,0.2485008-0.6465187,0.2187004c-0.2391968-0.0321999-0.4461975-0.1717987-0.5663986-0.3807983  l-15.6152-27.3599014l-1.5253983-0.2577972l-17.575201,15.3407974l2.2021999,9.4174995  c0.1923008,0.8218002-0.0489006,1.6685028-0.6445999,2.2642021l-1.6229992,1.6235008  c-0.1758003,0.1771965-0.4238014,0.2523994-0.6748009,0.2011986c-0.2441998-0.0498009-0.4463005-0.2187996-0.5390854-0.4532013  l-3.6328144-9.0878983l-0.5985994-0.0639c-1.9785004-0.2129021-3.0635004-1.3223-3.5175858-3.597702l-0.1055145-0.5317001  l-9.1512995-3.6649971c-0.2040999-0.0816002-0.3515999-0.2593002-0.3964999-0.4776001  c-0.0449001-0.216301,0.0214999-0.4379997,0.1805999-0.5962029l1.6973-1.6996994  c0.4687998-0.4706993,1.0908-0.7245979,1.7344148-0.7245979c0.1884851,0,0.3788853,0.0219994,0.568285,0.0663986  l9.3828001,2.1996994l15.3242998-17.596199l-0.2578011-1.5249004L3.1612372,8.5090504  c-0.1738-0.0997-0.2880855-0.2695999-0.3144-0.4683008C2.8204372,7.8468499,2.8878372,7.64815,3.0265372,7.5090499L5.579237,4.95435  c0.6094003-0.6093998,1.5068002-0.855,2.3379149-0.6416001l35.355484,9.0615005L53.1085358,3.52755  c0.9833984-0.9853001,2.2910004-1.5278,3.6816177-1.5278c1.3720818,0,2.7138824,0.5566,3.6835823,1.5282999  c0.969799,0.9707003,1.5264168,2.3154001,1.5264168,3.6890001c0,1.3720002-0.5566177,2.7162995-1.527317,3.6880002  L50.6388359,20.7511501z" data-original="#000000" class="active-path" data-old_color="#3a7bd5" fill="#3a7bd5"/></g> </svg>
