<svg xmlns="http://www.w3.org/2000/svg" viewBox="0 0 475.1 475.1" width="512" height="512"><path d="M249.5 268.7v-.1c36 0 69.8-14.2 95.2-39.9 25.2-25.5 39.1-59.2 39.1-94.8 0-35.4-13.9-68.7-39.2-93.8C319.4 15 285.7.8 249.6 0h-97.7c-4.1 0-7.5 3.4-7.5 7.5v246.2H98.8c-4.1 0-7.5 3.4-7.5 7.5s3.4 7.5 7.5 7.5h45.6v62.6H98.8c-4.1 0-7.5 3.4-7.5 7.5s3.4 7.5 7.5 7.5h45.6v121.3c0 4.1 3.4 7.5 7.5 7.5s7.5-3.4 7.5-7.5V346.3h155.8c4.1 0 7.5-3.4 7.5-7.5s-3.4-7.5-7.5-7.5H159.4v-62.6h90.1zM159.4 14.9h90c67 1.5 119.4 53.7 119.4 118.9 0 66-53.5 119.7-119.4 119.7h-90V14.9z" data-original="#000000" class="active-path" data-old_color="#3a7bd5" fill="#3a7bd5"/></svg>