<svg xmlns="http://www.w3.org/2000/svg" height="512" viewBox="0 0 480 480" width="512"><path d="M240 272c44.184 0 80-35.816 80-80s-35.816-80-80-80-80 35.816-80 80c.047 44.164 35.836 79.953 80 80zm0-144c35.348 0 64 28.652 64 64s-28.652 64-64 64-64-28.652-64-64c.04-35.328 28.672-63.96 64-64zm0 0" data-original="#000000" class="active-path" data-old_color="#3a7bd5" fill="#3a7bd5"/><path d="M232 224a8.001 8.001 0 005.656-2.344l48-48-11.312-11.312L232 204.688l-18.344-18.344-11.312 11.312 24 24A8.001 8.001 0 00232 224zm0 0" data-original="#000000" class="active-path" data-old_color="#3a7bd5" fill="#3a7bd5"/><path d="M440 0H40C17.918.027.027 17.918 0 40v304c.027 22.082 17.918 39.973 40 40h134.938l-6 48H152c-13.254 0-24 10.746-24 24s10.746 24 24 24h176c13.254 0 24-10.746 24-24s-10.746-24-24-24h-16.938l-6-48H440c22.082-.027 39.973-17.918 40-40V40c-.027-22.082-17.918-39.973-40-40zM40 16h400c13.254 0 24 10.746 24 24v24H16V40c0-13.254 10.746-24 24-24zm424 64v224H16V80zM336 456a8 8 0 01-8 8H152a8 8 0 010-16h176a8 8 0 018 8zm-41.063-24H185.063l6-48h97.875zM440 368H40c-13.254 0-24-10.746-24-24v-24h448v24c0 13.254-10.746 24-24 24zm0 0" data-original="#000000" class="active-path" data-old_color="#3a7bd5" fill="#3a7bd5"/><path d="M416 336h16v16h-16zM48 32h16v16H48zm32 0h16v16H80zm32 0h16v16h-16zm0 0" data-original="#000000" class="active-path" data-old_color="#3a7bd5" fill="#3a7bd5"/></svg>