<svg xmlns="http://www.w3.org/2000/svg" height="512" viewBox="-5 0 457 457.174" width="512"><path d="M333.031 221.191a24.474 24.474 0 00-9.265-19.199 24.498 24.498 0 00-18.691-40.355h-54.473l2.25-5.953a82.05 82.05 0 005.343-29.2v-.886a28.067 28.067 0 00-28.906-28.035c-15.348.816-27.332 13.566-27.2 28.933 0 7.277-10.226 24-18.51 35.152h-61.434c-3.868 0-7 3.133-7 7v140.114c0 3.867 3.132 7 7 7h171.968a24.51 24.51 0 0021.352-12.457 24.513 24.513 0 00-.367-24.72 24.494 24.494 0 0013.875-16.94 24.493 24.493 0 00-5.211-21.27 24.488 24.488 0 009.27-19.184zm-203.886-45.539h50.89v126.11h-50.89zm179.37 56.055h-3.445c-3.867 0-7 3.133-7 7s3.133 7 7 7c5.805 0 10.512 4.707 10.512 10.516 0 5.804-4.707 10.511-10.512 10.511h-10.957a7.001 7.001 0 000 14c5.805 0 10.512 4.707 10.512 10.516 0 5.805-4.707 10.512-10.512 10.512H194.035V171.02c5.934-7.848 22.055-30.48 22.055-44.52-.184-7.813 5.805-14.39 13.598-14.945a14.084 14.084 0 0110.23 3.96 14.071 14.071 0 014.273 10.098v.887a68.152 68.152 0 01-4.433 24.238l-5.836 15.45a7.002 7.002 0 006.547 9.48h64.601c5.805 0 10.512 4.707 10.512 10.512 0 5.808-4.707 10.515-10.512 10.515-3.867 0-7 3.133-7 7s3.133 7 7 7h3.446c5.808 0 10.515 4.707 10.515 10.516s-4.707 10.516-10.515 10.516zM149.77 261.172c-10.063 0-18.215 8.156-18.215 18.215 0 10.062 8.152 18.215 18.215 18.215 10.058 0 18.214-8.153 18.214-18.215-.011-10.055-8.16-18.203-18.214-18.215zm0 22.426a4.212 4.212 0 01-4.215-4.215 4.212 4.212 0 014.215-4.215 4.216 4.216 0 010 8.43zm291.277-71.676a45.015 45.015 0 005.914-34.203 45.032 45.032 0 00-20.164-28.25 31.167 31.167 0 01-14.465-30.031 45.022 45.022 0 00-9.512-33.38 45.051 45.051 0 00-30.425-16.706 31.151 31.151 0 01-26.063-20.766 45.042 45.042 0 00-23.055-25.95 45.046 45.046 0 00-34.664-1.843 31.172 31.172 0 01-32.496-7.418 45.042 45.042 0 00-64.062 0 31.159 31.159 0 01-32.496 7.418 45.054 45.054 0 00-34.66 1.848 45.06 45.06 0 00-23.055 25.945 31.142 31.142 0 01-26.059 20.777 45.05 45.05 0 00-39.941 50.09 31.159 31.159 0 01-14.457 30.027 45.024 45.024 0 00-20.164 28.247 45.03 45.03 0 005.906 34.195 31.156 31.156 0 010 33.328 45.056 45.056 0 00-5.914 34.203 45.058 45.058 0 0020.164 28.254 31.157 31.157 0 0114.465 30.027 45.05 45.05 0 0039.941 50.09 31.142 31.142 0 0126.059 20.762 45.048 45.048 0 0057.722 27.797 31.143 31.143 0 0132.497 7.418 45.042 45.042 0 0064.062 0 31.157 31.157 0 0132.496-7.418 45.027 45.027 0 0034.656-1.852 45.023 45.023 0 0023.055-25.945 31.154 31.154 0 0126.063-20.774 45.051 45.051 0 0030.425-16.707 45.031 45.031 0 009.512-33.382 31.162 31.162 0 0114.461-30.028 45.052 45.052 0 0020.168-28.25 45.028 45.028 0 00-5.914-34.207 31.167 31.167 0 010-33.316zm-11.809 40.844a31.05 31.05 0 01-9.824 43.047 45.212 45.212 0 00-20.984 43.574 31.046 31.046 0 01-27.527 34.52 45.202 45.202 0 00-37.813 30.152 31.045 31.045 0 01-39.777 19.156 45.197 45.197 0 00-47.153 10.762 31.03 31.03 0 01-22.074 9.218 31.044 31.044 0 01-22.074-9.218 45.162 45.162 0 00-47.153-10.762 31.038 31.038 0 01-39.773-19.156 45.207 45.207 0 00-37.813-30.153 31.036 31.036 0 01-27.527-34.52 45.202 45.202 0 00-20.984-43.573 31.056 31.056 0 01-13.903-19.473 31.057 31.057 0 014.079-23.574 45.203 45.203 0 000-48.36 31.05 31.05 0 01-4.079-23.574 31.038 31.038 0 0113.903-19.469A45.223 45.223 0 0049.75 117.79a31.037 31.037 0 016.555-23.008 31.038 31.038 0 0120.972-11.515 45.201 45.201 0 0037.813-30.153 31.037 31.037 0 0115.887-17.883 31.038 31.038 0 0123.886-1.27 45.203 45.203 0 0047.153-10.76 31.044 31.044 0 0122.074-9.22 31.03 31.03 0 0122.074 9.22 45.204 45.204 0 0047.152 10.76 31.038 31.038 0 0139.778 19.153 45.196 45.196 0 0037.812 30.153 31.038 31.038 0 0120.969 11.515 31.04 31.04 0 016.559 23.008 45.195 45.195 0 0020.984 43.574 31.033 31.033 0 0113.898 19.469 31.032 31.032 0 01-4.074 23.574 45.195 45.195 0 00-.004 48.36zM224.09 58.305c-94.047 0-170.281 76.242-170.281 170.285 0 94.043 76.242 170.281 170.285 170.281 94.047 0 170.281-76.238 170.281-170.285-.105-94-76.285-170.176-170.285-170.281zm0 326.57c-86.313-.004-156.281-69.973-156.281-156.285s69.968-156.281 156.28-156.281c86.313-.004 156.286 69.964 156.286 156.277-.098 86.273-70.012 156.187-156.285 156.285zm0 0" data-original="#000000" class="active-path" data-old_color="#3a7bd5" fill="#3a7bd5"/></svg>