<svg xmlns="http://www.w3.org/2000/svg" viewBox="0 0 57 57" width="512" height="512"><path d="M57 12.002H41.741A6.957 6.957 0 0043 7.995a6.951 6.951 0 00-2.043-4.95 7.008 7.008 0 00-9.899 0l-2.829 2.829-2.828-2.829a7.008 7.008 0 00-9.899 0 6.951 6.951 0 00-2.043 4.95c0 1.458.444 2.842 1.259 4.007H0v14h5v30h48v-30h4v-14zM32.472 4.459a5.006 5.006 0 017.071 0A4.967 4.967 0 0141 7.995c0 1.34-.518 2.596-1.457 3.535l-.472.472H24.929l4.714-4.714 2.829-2.829zM16.916 11.53a4.964 4.964 0 01-1.457-3.535c0-1.341.518-2.596 1.457-3.536a5.006 5.006 0 017.071 0l2.828 2.829-3.535 3.535a6.159 6.159 0 00-.581.689c-.054.073-.107.152-.159.229-.06.088-.123.167-.18.26h-4.972l-.472-.471zM2 24.002v-10h26v10H2zm26 2v12H7v-12h21zm-21 14h21v14H7v-14zm23 14v-14h21v14H30zm21-16H30v-12h21v12zm4-14H30v-10h25v10z" data-original="#000000" class="active-path" data-old_color="#3a7bd5" fill="#3a7bd5"/></svg>