<svg xmlns="http://www.w3.org/2000/svg" viewBox="0 0 470.002 470.002" width="512" height="512"><path d="M383.646 396.844l-2.738-8.032a29.832 29.832 0 002.269-11.433c0-11.089-6.053-20.785-15.024-25.978L323.36 220.018h32.019v2.5a7.5 7.5 0 0015 0v-20a7.5 7.5 0 00-15 0v2.5h-37.133l-38.263-112.23a7.543 7.543 0 00-.672-1.438c.295-2.083.452-4.203.452-6.35 0-22.257-16.246-40.781-37.5-44.363V7.5a7.5 7.5 0 00-15 0v33.137c-21.254 3.582-37.5 22.106-37.5 44.363 0 2.71.246 5.378.713 7.981l-38.197 112.036h-38.133v-2.5a7.5 7.5 0 00-15 0v20a7.5 7.5 0 0015 0v-2.5h33.019l-23.715 69.561a7.5 7.5 0 1014.197 4.84l61.86-181.444a44.936 44.936 0 0011.38 10.173L107.395 426.703c-2.61-2.133-4.743-4.826-6.142-7.921-2.411-5.332-2.526-11.264-.323-16.703.053-.13.102-.262.147-.395l26.889-78.87a7.5 7.5 0 10-14.197-4.841l-11.275 33.07c-9.615 5.207-15.664 15.177-15.664 26.334 0 4.185.883 8.305 2.559 12.104l-2.446 7.173c-3.672 9.223-3.446 19.267.642 28.307 3.115 6.889 8.325 12.652 14.774 16.51l-6.344 18.606a7.5 7.5 0 1014.197 4.84l20.959-61.475a29.924 29.924 0 0015.177-26.067c0-3.992-.806-7.939-2.336-11.595l49.696-145.766h33.553v12.5a7.5 7.5 0 0015 0v-12.5h33.554l49.695 145.762a29.841 29.841 0 00-2.335 11.599c0 11.152 6.121 20.895 15.176 26.065l20.96 61.476a7.502 7.502 0 007.098 5.082 7.5 7.5 0 007.099-9.922l-6.339-18.593c15.018-8.917 22.317-27.509 16.477-44.639zm-45.47-19.465c0-8.271 6.729-15 15-15s15 6.729 15 15-6.729 15-15 15-15-6.729-15-15zm12.789-29.91a29.804 29.804 0 00-14.206 4.819l-78.121-229.141a44.923 44.923 0 0012.074-11.069l80.253 235.391zM242.262 122.5c0 4.136-3.364 7.5-7.5 7.5s-7.5-3.364-7.5-7.5c0-.513.052-1.014.151-1.498.705-3.428 3.732-6.002 7.349-6.002s6.645 2.574 7.346 5.987c.102.499.154 1 .154 1.513zm-7.5-67.5c16.542 0 30 13.458 30 30a29.958 29.958 0 01-12.012 24.001c-4.109-5.462-10.643-9.001-17.988-9.001s-13.879 3.539-17.988 9.001A29.957 29.957 0 01204.762 85c0-16.542 13.458-30 30-30zm7.5 150.018v-12.5a7.5 7.5 0 00-15 0v12.5h-28.439l22.093-64.802A22.382 22.382 0 00234.762 145a22.382 22.382 0 0013.847-4.785l22.093 64.802h-28.44zm119.886 221.739l-6.64-19.477a29.798 29.798 0 0014.17-4.864c2.751 9.056-.483 18.661-7.53 24.341z" fill="#bca474"/></svg>