<svg xmlns="http://www.w3.org/2000/svg" width="512" height="512"><path d="M150 189c-5.52 0-10 4.48-10 10s4.48 10 10 10 10-4.48 10-10-4.48-10-10-10z" fill="#FFF"/><path d="M502 432h-36V50c0-27.57-22.43-50-50-50H50C22.43 0 0 22.43 0 50v40c0 5.522 4.478 10 10 10h70v362c0 27.57 22.43 50 50 50h332c27.57 0 50-22.43 50-50v-20c0-5.522-4.478-10-10-10zM80 80H20V50c0-16.542 13.458-30 30-30 8.008 0 15.54 3.122 21.209 8.79C76.878 34.46 80 41.992 80 50v30zm80 362v20c0 16.542-13.458 30-30 30s-30-13.458-30-30V50c0-10.964-3.516-21.389-10.005-30H416c16.542 0 30 13.458 30 30v382h-40v-35.314c12.76-11.371 20-27.377 20-44.686 0-33.084-26.916-60-60-60-17.729 0-33.679 7.735-44.673 20H150c-5.522 0-10 4.478-10 10s4.478 10 10 10h159.44a59.718 59.718 0 00-3.44 20 60.236 60.236 0 003.395 20H150c-5.522 0-10 4.478-10 10s4.478 10 10 10h166a9.946 9.946 0 004.38-1.021 60.493 60.493 0 005.62 5.707V432H170c-5.522 0-10 4.478-10 10zm206-50c-8.728 0-17.015-2.762-23.968-7.986a.425.425 0 00-.034-.025C331.831 376.354 326 364.696 326 352c0-22.056 17.944-40 40-40s40 17.944 40 40c0 12.698-5.833 24.358-16.012 31.999C383.031 389.233 374.736 392 366 392zm20 16.584v45.91l-14.453-9.635a9.998 9.998 0 00-11.094 0L346 454.494v-45.911A59.822 59.822 0 00366 412a59.812 59.812 0 0020-3.416zM492 462c0 16.542-13.458 30-30 30H169.973c6.292-8.363 10.027-18.752 10.027-30v-10h146v21.18a10 10 0 0015.547 8.32L366 465.198l24.453 16.302a9.99 9.99 0 0010.266.496A10 10 0 00406 473.18V452h86v10z" fill="#FFF"/><path d="M316 60H210c-5.522 0-10 4.478-10 10s4.478 10 10 10h106c5.522 0 10-4.478 10-10s-4.478-10-10-10zm80 129H190c-5.522 0-10 4.478-10 10s4.478 10 10 10h206c5.522 0 10-4.478 10-10s-4.478-10-10-10zm0 63H150c-5.522 0-10 4.478-10 10s4.478 10 10 10h246c5.522 0 10-4.478 10-10s-4.478-10-10-10zm0-129H150c-5.522 0-10 4.478-10 10s4.478 10 10 10h246c5.522 0 10-4.478 10-10s-4.478-10-10-10z" fill="#FFF"/></svg>