<svg xmlns="http://www.w3.org/2000/svg" width="512" height="512"><g fill="#FFF"><path d="M119.467 349.867c-14.138 0-25.6 11.462-25.6 25.6s11.461 25.6 25.6 25.6 25.6-11.461 25.6-25.6c-.016-14.132-11.468-25.585-25.6-25.6zm0 34.133c-4.713 0-8.533-3.82-8.533-8.533s3.82-8.533 8.533-8.533 8.533 3.82 8.533 8.533a8.542 8.542 0 01-8.533 8.533zm273.066-34.133c-14.138 0-25.6 11.462-25.6 25.6s11.462 25.6 25.6 25.6c14.138 0 25.6-11.461 25.6-25.6-.015-14.132-11.468-25.585-25.6-25.6zm0 34.133a8.533 8.533 0 118.533-8.533 8.54 8.54 0 01-8.533 8.533z"/><path d="M505.496 228.4l-58.783-66.2a25.596 25.596 0 00-19.192-8.6h-77.654v-51.2c-.015-14.132-11.468-25.585-25.6-25.6H25.6C11.468 76.815.015 88.268 0 102.4v221.867a8.53 8.53 0 008.534 8.534h8.533v25.6c.015 14.132 11.468 25.585 25.6 25.6h17.748c4.206 29.38 29.372 51.2 59.052 51.2s54.846-21.82 59.052-51.2h154.964c4.206 29.38 29.372 51.2 59.052 51.2s54.846-21.82 59.052-51.2H486.4c14.132-.015 25.585-11.468 25.6-25.6V245.417a25.577 25.577 0 00-6.504-17.017zM17.067 315.733V102.4a8.54 8.54 0 018.533-8.533h298.667a8.54 8.54 0 018.533 8.533v213.333H17.067zm43.348 51.2H42.667a8.54 8.54 0 01-8.533-8.533v-25.6h43.61a59.576 59.576 0 00-17.329 34.133zm59.052 51.2c-23.564 0-42.667-19.103-42.667-42.667S95.903 332.8 119.467 332.8s42.667 19.103 42.667 42.667c-.028 23.552-19.115 42.639-42.667 42.666zm85.333-51.2h-26.282A59.571 59.571 0 00161.19 332.8h43.61v34.133zm76.8 0h-59.733V332.8H281.6v34.133zm51.882 0h-34.815V332.8h52.143a59.574 59.574 0 00-17.328 34.133zm59.051 51.2c-23.564 0-42.667-19.103-42.667-42.667s19.102-42.667 42.667-42.667c23.564 0 42.667 19.103 42.667 42.667-.028 23.553-19.114 42.64-42.667 42.667zm102.4-59.733a8.54 8.54 0 01-8.533 8.533h-34.815c-4.255-29.353-29.391-51.147-59.052-51.2h-42.667V170.667H384V256c.015 14.132 11.468 25.585 25.6 25.6h85.333v76.8zm0-93.867H409.6a8.54 8.54 0 01-8.533-8.533v-85.333h26.454a8.549 8.549 0 016.421 2.85l58.804 66.225a8.556 8.556 0 012.188 5.675v19.116z"/></g></svg>