<svg xmlns="http://www.w3.org/2000/svg" viewBox="0 0 464 464" width="512" height="512"><path d="M422.32 403.096l-48.68-62.584A70.461 70.461 0 00412.152 312c11.464-19.816 6.28-44 1.264-67.36A183.984 183.984 0 01408 208a183.924 183.924 0 015.416-36.672c4.984-23.376 10.2-47.544-1.264-67.328-11.872-20.512-35.776-28.104-58.896-35.432A171.326 171.326 0 01320 55.544a162.522 162.522 0 01-26.648-21.6C276.2 18.024 256.752 0 232 0s-44.2 18.024-61.36 33.936A162.563 162.563 0 01144 55.544a171.282 171.282 0 01-33.248 12.992c-23.12 7.328-47.024 14.92-58.896 35.432-11.464 19.816-6.28 44-1.264 67.36A183.923 183.923 0 0156 208a183.924 183.924 0 01-5.416 36.672c-4.984 23.376-10.2 47.544 1.264 67.328A70.465 70.465 0 0090.4 340.504l-48.72 62.584a8 8 0 007.312 12.848l57.2-7.144 14.12 49.408a8 8 0 006.168 5.656A8.16 8.16 0 00128 464a8 8 0 006.32-3.088l51.088-65.712A73.975 73.975 0 00232 416a73.975 73.975 0 0046.592-20.8l51.088 65.688a8 8 0 007.84 2.968 8 8 0 006.168-5.656l14.12-49.4 57.2 7.144a8 8 0 007.312-12.848zm-290.96 35.552L119.688 397.8a8 8 0 00-8.68-5.736l-44.8 5.6 40.152-51.616 4.424 1.416A171.277 171.277 0 01144 360.456a162.522 162.522 0 0126.648 21.6l2.752 2.544-42.04 54.048zM232 400c-18.48 0-34.024-14.4-50.488-29.664A176.344 176.344 0 00152 346.6a185.493 185.493 0 00-36.424-14.4c-21.144-6.712-41.12-13.048-49.888-28.2-8.368-14.472-4.048-34.64.536-56A195.908 195.908 0 0072 208a195.827 195.827 0 00-5.768-40c-4.584-21.352-8.904-41.52-.536-56 8.8-15.152 28.744-21.488 49.888-28.2A185.546 185.546 0 00152 69.4a176.336 176.336 0 0029.504-23.736C197.976 30.4 213.52 16 232 16s34.024 14.4 50.488 29.664A176.344 176.344 0 00312 69.4a185.493 185.493 0 0036.424 14.4c21.144 6.712 41.12 13.048 49.888 28.2 8.368 14.472 4.048 34.64-.536 56A195.908 195.908 0 00392 208a195.827 195.827 0 005.768 40c4.584 21.352 8.904 41.52.536 56-8.8 15.152-28.744 21.488-49.888 28.2A185.546 185.546 0 00312 346.6a176.336 176.336 0 00-29.504 23.736C266.024 385.6 250.48 400 232 400zm121.032-7.936a8 8 0 00-8.68 5.736l-11.712 40.848-42.032-54.04 2.752-2.544A162.563 162.563 0 01320 360.456a171.282 171.282 0 0133.248-12.992l4.424-1.416 40.16 51.616-44.8-5.6z" data-original="#000000" class="active-path" data-old_color="#3a7bd5" fill="#3a7bd5"/><path d="M232 64c-79.529 0-144 64.471-144 144s64.471 144 144 144 144-64.471 144-144c-.092-79.491-64.509-143.907-144-144zm0 272c-70.692 0-128-57.308-128-128S161.308 80 232 80s128 57.308 128 128c-.084 70.658-57.342 127.916-128 128z" data-original="#000000" class="active-path" data-old_color="#3a7bd5" fill="#3a7bd5"/><path d="M324.304 174.584A15.998 15.998 0 00311.376 168H262.4l-15.2-46.616c-2.759-8.395-11.801-12.963-20.196-10.204a16 16 0 00-10.204 10.204L201.64 168h-49.016c-8.837-.004-16.004 7.155-16.008 15.992a15.999 15.999 0 006.584 12.944l39.648 28.8-15.144 46.616c-2.732 8.404 1.867 17.431 10.27 20.162a16.002 16.002 0 0014.354-2.274L232 261.448l39.656 28.8a15.775 15.775 0 0018.816 0 15.768 15.768 0 005.808-17.888l-15.144-46.624 39.648-28.8c7.145-5.2 8.721-15.208 3.52-22.352zm-57.28 41.632a8.001 8.001 0 00-2.904 8.952l16.944 52.144-44.36-32.224a8 8 0 00-9.4 0l-44.36 32.224 16.936-52.144a8 8 0 00-2.904-8.944L152.624 184h54.824a8 8 0 007.608-5.528L232 126.328l16.944 52.136a8 8 0 007.608 5.528l54.824.008-44.352 32.216z" data-original="#000000" class="active-path" data-old_color="#3a7bd5" fill="#3a7bd5"/></svg>