<svg xmlns="http://www.w3.org/2000/svg" viewBox="0 0 512.002 512.002" width="512" height="512"><path d="M234.429 112.065H130.804a7.5 7.5 0 000 15h103.624a7.5 7.5 0 00.001-15zm140.852 252.299h-55.476a7.5 7.5 0 000 15h55.476a7.5 7.5 0 000-15z" fill="#bca474"/><path d="M476.245 136.326a7.501 7.501 0 0010.193-2.933c14.702-26.581 23.534-53.597 25.54-78.128.369-4.544-3.546-8.457-8.089-8.086-28.616 2.34-59.95 13.913-89.961 32.568-3.246-13.176-7.346-23.47-12.447-31.253-7.837-11.958-18.061-18.023-30.387-18.023H43.788c-15.5 0-27.203 4.981-34.78 14.807C-5.7 64.345 1.95 94.338 2.283 95.606a7.501 7.501 0 007.254 5.595h66.02c6.706 42.678 6.364 103.367 6.047 159.227-.161 28.362-.328 57.689.353 84.417.105 4.14 3.54 7.403 7.688 7.307a7.5 7.5 0 007.307-7.688c-.674-26.494-.508-55.702-.348-83.949.38-66.939.746-131.33-8.622-174.825-.892-4.139-1.907-8.261-3.094-12.326-3.305-11.354-7.507-20.805-12.848-27.891h299.054c13.59 0 23.251 14.091 29.469 43.043-8.094 5.693-15.988 11.883-23.643 18.491-17.119 14.777-32.926 31.627-46.52 49.891H130.804a7.5 7.5 0 000 15h189.147c-5.536 8.5-10.51 17.126-14.865 25.784H130.804a7.5 7.5 0 000 15h167.362c-3.623 8.647-6.594 17.272-8.887 25.784H130.804a7.5 7.5 0 000 15h155.121a149.633 149.633 0 00-1.46 10.615l-23.164 23.164a7.5 7.5 0 000 10.606c2.836 2.835 7.689 2.918 10.607 0l23.154-23.154c13.906-1.411 27.557-4.828 40.704-9.524 13.532-4.834 26.56-11.046 38.995-18.236 11.985-6.93 23.434-14.783 34.292-23.37-.005 12.275-.075 24.709-.145 36.855-.306 53.904-.622 109.516 4.894 150.379H165.053c-4.753 0-8.359 4.542-7.302 9.168.017.074.025.149.044.223l.031.124c.416 1.733 5.488 24.014-3.762 36.745l-.082.114c-5.326 7.232-14.743 9.402-23.272 9.354-18.227-.103-28.873-30.304-32.544-92.32a7.5 7.5 0 00-14.973.887c2.933 49.554 10.996 106.434 47.611 106.434H458.11c15.5 0 27.203-4.981 34.78-14.807 14.706-19.068 7.056-49.061 6.723-50.329a7.501 7.501 0 00-7.254-5.595h-63.408c-5.665-39.92-5.35-95.978-5.042-150.293.093-16.359.187-33.231.121-49.581a314.62 314.62 0 0012.279-11.632c12.512-12.512 23.876-25.94 33.773-39.912a7.501 7.501 0 00-12.241-8.671c-9.41 13.283-20.223 26.061-32.139 37.976a297.852 297.852 0 01-29.979 26.235c-25.809 19.67-53.433 33.798-79.686 40.703-.845.221-1.694.428-2.542.637L446.78 122.979a7.5 7.5 0 000-10.606 7.5 7.5 0 00-10.606 0L302.89 245.656c.191-.775.374-1.548.578-2.325 7.655-29.298 22.357-56.044 40.745-79.88l.02-.026.173-.223a298.675 298.675 0 0160.249-59.131c29.873-21.906 61.914-36.383 91.291-40.864-3.054 19.957-10.79 41.513-22.634 62.926a7.5 7.5 0 002.933 10.193zM72.724 86.198H15.738v.001a72.166 72.166 0 01-.74-8.809c-.138-6.824.775-16.352 5.911-22.984 4.598-5.938 11.954-8.863 22.48-8.935l4.91.54.211.053c9.918 2.584 17.662 14.494 23.093 35.477.4 1.546.769 3.1 1.121 4.657zm413.418 339.603c1.138 7.949 1.966 22.564-5.128 31.762-4.654 6.034-12.146 8.967-22.903 8.967H165.733c9.646-12.683 9.518-30.105 8.252-40.729h312.157z" fill="#bca474"/></svg>