<svg xmlns="http://www.w3.org/2000/svg" width="512" height="512" viewBox="0 0 611.997 611.998"><g fill="#FFF"><path d="M601.444 535.785L433.663 368.39c1.512-2.27 2.646-6.033 3.772-10.939 17.719-29.785 28.682-62.207 32.052-96.519.772-7.915 1.126-16.208 1.126-24.13 0-26.012-4.343-52.088-13.19-77.665-11.51-33.243-29.905-62.842-55.426-88.218-45.364-45.13-105.189-68.625-166.64-68.625-60.702 0-120.801 23.607-166.269 68.625-30.315 30.009-50.391 65.633-61.08 105.938-10.802 40.755-10.553 80.681 0 121.026 10.561 40.346 30.652 75.67 61.08 105.945 45.355 45.131 105.567 68.617 166.269 68.617 47.125 0 89.964-13.625 129.688-38.455l6.033-3.771 168.529 168.15c6.418 6.402 13.199 10.176 19.609 10.932 1.504.377 2.638.449 3.764.377 4.537-.297 8.695-1.463 12.065-3.395 4.552-2.598 9.427-6.41 14.703-11.686l7.544-7.537c5.276-5.285 9.089-10.158 11.688-14.703 1.922-3.369 3.016-7.922 3.016-13.576v-3.018c.001-6.418-3.948-13.39-10.552-19.978zM422.354 287.33c-8.848 33.131-25.634 62.207-50.52 87.092-36.194 36.188-84.832 56.553-136.478 56.553-50.905 0-99.221-20.695-136.863-56.553-73.957-70.466-73.651-202.198 0-273.34 37.2-35.937 85.588-56.93 136.863-56.93 53.914 0 98.892 19.11 136.478 56.93 24.62 24.765 41.849 53.536 50.52 86.714 8.67 33.177 8.872 66.307 0 99.534z"/><path d="M258.353 138.401h-45.621v76.162h-76.161v45.621h76.161v76.53h45.621v-76.53h76.532v-45.621h-76.532z"/></g></svg>