<svg xmlns="http://www.w3.org/2000/svg" viewBox="0 0 511.999 511.999" width="512" height="512"><path d="M444.253 47.065H67.747C30.392 47.065.002 77.456.002 114.81v282.379c0 37.355 30.39 67.745 67.745 67.745h376.506c37.355 0 67.745-30.391 67.745-67.745V114.81c0-37.355-30.39-67.745-67.745-67.745zm26.381 350.124c0 14.546-11.835 26.381-26.381 26.381H67.747c-14.546 0-26.381-11.835-26.381-26.381V114.81c0-14.546 11.835-26.381 26.381-26.381h376.506c14.546 0 26.381 11.835 26.381 26.381v282.379z" fill="#FFF"/><path d="M508.259 102.95c-6.549-9.357-19.443-11.633-28.804-5.083L255.999 254.284 32.544 97.866c-9.357-6.551-22.253-4.274-28.803 5.083s-4.274 22.253 5.083 28.803L244.14 296.474a20.652 20.652 0 0011.86 3.738c4.149 0 8.299-1.246 11.86-3.738l235.316-164.721c9.357-6.55 11.633-19.446 5.083-28.803z" fill="#FFF"/></svg>