<svg xmlns="http://www.w3.org/2000/svg" width="512" height="512"><path d="M256 0C114.509 0 0 114.497 0 256c0 141.491 114.497 256 256 256 141.491 0 256-114.497 256-256C512 114.509 397.503 0 256 0zm130.939 269.456L264.81 364.734c-11.175 8.716-27.565.762-27.565-13.456v-47.919H135.557c-9.425 0-17.067-7.641-17.067-17.067v-60.584c0-9.425 7.641-17.067 17.067-17.067h101.688v-47.919c0-14.191 16.379-22.182 27.565-13.456l122.129 95.278c8.762 6.834 8.743 20.093 0 26.912z" data-original="#000000" class="active-path" data-old_color="#000000" fill="#3A7BD5"/></svg>