<svg xmlns="http://www.w3.org/2000/svg" viewBox="0 0 241.73 241.73" width="512" height="512"><path d="M234.771 181.213l-34.938-34.953c-4.692-4.668-10.975-7.24-17.689-7.24-6.987 0-13.584 2.751-18.572 7.742l-13.6 13.597c-10.568-5.874-24.614-13.953-39.197-28.536-14.566-14.571-22.646-28.576-28.55-39.201l13.613-13.603c10.121-10.142 10.328-26.413.463-36.269L61.37 7.818C56.691 3.126 50.408.542 43.677.542c-6.831 0-13.293 2.63-18.252 7.417-3 2.416-18.055 15.706-23.666 43.114-7.856 38.363 10.194 75.274 62.302 127.403 58.209 58.191 107.902 62.714 121.746 62.714 2.882 0 4.621-.178 5.085-.232 27.147-3.182 36.867-15.238 43.964-24.041 9.196-11.409 9.164-26.421-.085-35.704zm-11.593 26.289c-6.671 8.274-12.971 16.088-34.031 18.557-.011.001-1.163.13-3.34.13-12.386 0-57.008-4.206-111.139-58.32-48.053-48.073-64.919-81.04-58.214-113.788 4.894-23.906 17.887-34.067 18.392-34.453l.448-.331.393-.394c2.169-2.167 5.006-3.361 7.989-3.361 2.716 0 5.228 1.018 7.08 2.876l34.939 34.94c4.02 4.016 3.806 10.774-.471 15.06L69.829 83.8l-.253.265c-4.012 4.419-3.54 10.391-1.33 14.28 6.377 11.508 15.112 27.269 31.92 44.082 16.752 16.752 32.49 25.48 43.966 31.845 1.149.645 3.521 1.727 6.49 1.727 3.506 0 6.725-1.484 9.108-4.189l14.448-14.444c2.157-2.158 4.985-3.347 7.964-3.347 2.722 0 5.247 1.021 7.095 2.859l34.915 34.93c4.435 4.451 2.604 11.256-.974 15.694zM146.447 37.293c12.887 1.483 28.061 9.289 38.657 19.886 10.695 10.695 18.52 26.023 19.933 39.05a7.5 7.5 0 0014.912-1.618c-1.787-16.467-11.075-34.874-24.238-48.038-13.04-13.041-31.259-22.306-47.549-24.181-4.113-.477-7.834 2.479-8.308 6.593a7.5 7.5 0 006.593 8.308zm-7.007 31.418c6.97.803 16.616 5.973 22.935 12.292 6.373 6.374 11.553 16.112 12.316 23.157a7.5 7.5 0 1014.912-1.617c-1.304-12.028-9.289-24.813-16.623-32.147-7.268-7.269-19.928-15.216-31.825-16.587-4.119-.479-7.835 2.478-8.309 6.592a7.503 7.503 0 006.594 8.31z" fill="#FFF"/></svg>