<svg xmlns="http://www.w3.org/2000/svg" width="512" height="512"><path d="M480 341.333h-74.667C358.281 341.333 320 303.052 320 256s38.281-85.333 85.333-85.333H480A10.66 10.66 0 00490.667 160v-53.333C490.667 83.135 471.531 64 448 64H42.667C19.135 64 0 83.135 0 106.667v298.667C0 428.865 19.135 448 42.667 448H448c23.531 0 42.667-19.135 42.667-42.667V352A10.66 10.66 0 00480 341.333z" data-original="#000000" class="active-path" data-old_color="#3a7bd5" fill="#3a7bd5"/><path d="M480 192h-74.667c-35.292 0-64 28.708-64 64s28.708 64 64 64H480c17.646 0 32-14.354 32-32v-64c0-17.646-14.354-32-32-32zm-74.667 85.333C393.573 277.333 384 267.76 384 256s9.573-21.333 21.333-21.333c11.76 0 21.333 9.573 21.333 21.333s-9.572 21.333-21.333 21.333z" data-original="#000000" class="active-path" data-old_color="#3a7bd5" fill="#3a7bd5"/></svg>