<svg xmlns="http://www.w3.org/2000/svg" height="512" viewBox="0 0 496 496" width="512"><path d="M472 80h-88V48c0-2.473-1.184-4.602-2.945-6.063l.074-.082-48-40-.074.082C331.672.777 329.953 0 328 0H120a7.99 7.99 0 00-8 8v72H24C10.77 80 0 90.77 0 104v272c0 13.23 10.77 24 24 24h184v32h-48c-22.055 0-40 17.945-40 40v16c0 4.426 3.574 8 8 8h240c4.426 0 8-3.574 8-8v-16c0-22.055-17.945-40-40-40h-48v-32h184c13.23 0 24-10.77 24-24V104c0-13.23-10.77-24-24-24zM336 25.09L353.895 40H336zM128 16h192v32c0 4.426 3.574 8 8 8h40v264H128zm248 320c4.426 0 8-3.574 8-8V128h64v224H48V128h64v200c0 4.426 3.574 8 8 8zm-16 136v8H136v-8c0-13.23 10.77-24 24-24h176c13.23 0 24 10.77 24 24zm-88-40h-48v-32h48zm208-56c0 4.414-3.586 8-8 8H24c-4.414 0-8-3.586-8-8V104c0-4.414 3.586-8 8-8h88v16H40a7.99 7.99 0 00-8 8v240c0 4.426 3.574 8 8 8h416c4.426 0 8-3.574 8-8V120c0-4.426-3.574-8-8-8h-72V96h88c4.414 0 8 3.586 8 8zm0 0" fill="#bca474"/><path d="M215.145 85.977C220.602 80.23 224 72.527 224 64c0-17.648-14.352-32-32-32s-32 14.352-32 32c0 8.527 3.398 16.23 8.855 21.977C154.047 94.16 144 109.922 144 128v24c0 4.426 3.574 8 8 8h80c4.426 0 8-3.574 8-8v-24c0-18.078-10.047-33.84-24.855-42.023zM176 64c0-8.824 7.176-16 16-16s16 7.176 16 16-7.176 16-16 16-16-7.176-16-16zm48 80h-64v-16c0-17.648 14.352-32 32-32s32 14.352 32 32zm32 0h96v16h-96zm0-32h96v16h-96zm0-32h32v16h-32zm-40.855 149.977C220.602 224.23 224 216.527 224 208c0-17.648-14.352-32-32-32s-32 14.352-32 32c0 8.527 3.398 16.23 8.855 21.977C154.047 238.16 144 253.922 144 272v24c0 4.426 3.574 8 8 8h80c4.426 0 8-3.574 8-8v-24c0-18.078-10.047-33.84-24.855-42.023zM176 208c0-8.824 7.176-16 16-16s16 7.176 16 16-7.176 16-16 16-16-7.176-16-16zm48 80h-64v-16c0-17.648 14.352-32 32-32s32 14.352 32 32zm32 0h96v16h-96zm0-32h96v16h-96zm0-32h32v16h-32zm0 0" fill="#bca474"/></svg>