<svg xmlns="http://www.w3.org/2000/svg" viewBox="0 0 495 495" width="512" height="512"><g fill="#FFF"><path d="M183.5 144.723c-57.07 0-103.5 46.43-103.5 103.5s46.43 103.5 103.5 103.5 103.5-46.43 103.5-103.5-46.429-103.5-103.5-103.5zm0 192c-48.799 0-88.5-39.701-88.5-88.5s39.701-88.5 88.5-88.5 88.5 39.701 88.5 88.5-39.7 88.5-88.5 88.5z"/><path d="M487.5 344.723a7.5 7.5 0 00-7.5 7.5v40.5H367V252.196c0-23.653-4.348-46.715-12.635-68.232l7.236-7.236c7.357-7.357 8.971-18.921 3.925-28.122-19.094-34.819-47.59-63.316-82.409-82.409-9.201-5.046-20.765-3.432-28.122 3.925l-6.654 6.654c-19.583-7.583-40.488-11.706-61.993-12.032-50.104-.771-97.197 18.319-132.602 53.724S-.738 200.965.022 251.07c.737 48.593 20.82 94.136 56.548 128.24 35.409 33.799 81.898 52.413 130.904 52.413H343.5c12.958 0 23.5-10.542 23.5-23.5v-.5h120.5a7.5 7.5 0 007.5-7.5v-48a7.5 7.5 0 00-7.5-7.5zM265.601 80.728c2.673-2.672 6.909-3.241 10.304-1.379 32.309 17.717 58.751 44.159 76.469 76.469 1.861 3.394 1.294 7.63-1.379 10.303l-3.054 3.054c-8.478-17.398-19.67-33.549-33.353-47.884-15.157-15.879-32.578-28.659-51.518-38.032l2.531-2.531zM352 408.223c0 4.687-3.813 8.5-8.5 8.5H187.474c-93.704 0-171.066-74.414-172.454-165.88-.698-46.012 16.822-89.256 49.333-121.768 31.888-31.888 74.098-49.353 119.121-49.353.88 0 1.765.007 2.646.02C277.587 81.13 352 158.493 352 252.196v156.027z"/><path d="M229.009 119.491a136.086 136.086 0 0117.073 7.39 7.5 7.5 0 0010.107-3.219 7.5 7.5 0 00-3.219-10.106 151.158 151.158 0 00-18.96-8.207 7.5 7.5 0 00-9.571 4.571 7.5 7.5 0 004.57 9.571zm47.077 8.805a7.5 7.5 0 00-9.175 11.867c16.306 12.606 29.759 28.995 38.902 47.393a7.5 7.5 0 1013.432-6.675c-10.146-20.417-25.07-38.6-43.159-52.585zm-40.891 81.452a7.5 7.5 0 00-2.74 10.247c4.936 8.539 7.545 18.3 7.545 28.229 0 31.154-25.346 56.5-56.5 56.5s-56.5-25.346-56.5-56.5 25.346-56.5 56.5-56.5c12.988 0 25.197 4.283 35.307 12.387a7.5 7.5 0 009.382-11.704c-12.617-10.113-28.488-15.683-44.689-15.683-39.425 0-71.5 32.075-71.5 71.5s32.075 71.5 71.5 71.5 71.5-32.075 71.5-71.5c0-12.561-3.305-24.917-9.559-35.735a7.497 7.497 0 00-10.246-2.741z"/></g></svg>