<svg xmlns="http://www.w3.org/2000/svg" height="512" viewBox="0 0 506.756 506" width="512"><path d="M302.016 175.988a8.95 8.95 0 006.351-2.629c87.024-87.023 130.645-100.5 138.504-102.32a8.984 8.984 0 004.621-14.934 8.983 8.983 0 00-8.676-2.566c-12.214 2.824-58.937 18.898-147.152 107.117a8.981 8.981 0 006.352 15.332zm0 0" data-original="#000000" class="active-path" data-old_color="#3a7bd5" fill="#3a7bd5"/><path d="M460.809 313.094l-11.82 11.82-6.805-18.605 24.984-24.977c10.437-10.562 10.434-27.555-.008-38.11-10.539-10.5-27.582-10.495-38.117.005l-7.273 7.273-17.438-47.672c75.375-83.098 103.613-147.473 75.527-175.555-28.066-28.097-92.457.141-175.554 75.528l-47.676-17.442 7.277-7.273c10.504-10.531 10.504-27.574 0-38.106a26.024 26.024 0 00-18.933-7.843 26.574 26.574 0 00-19.176 7.843l-24.973 24.973-18.601-6.808 11.812-11.817c10.512-10.527 10.512-27.578 0-38.11A26.528 26.528 0 00175.11.384a26.19 26.19 0 00-19.18 7.836l-29.511 29.51-63.786-23.332a18.24 18.24 0 00-18.746 4.235L5.277 57.246A17.94 17.94 0 008.715 85.34l198.152 118.894a1056.524 1056.524 0 00-70.781 91.786L53.55 285.71a17.783 17.783 0 00-15.063 5.095l-13.21 13.207a17.928 17.928 0 005.093 28.972l67.965 31.72c-7.195 19.655-8.074 35.155.43 43.663a23.614 23.614 0 0017.422 6.145 79.45 79.45 0 0026.25-5.703l31.69 67.918a17.934 17.934 0 0013.114 10.132c1.04.184 2.09.274 3.145.274 4.777 0 9.36-1.899 12.734-5.281l13.211-13.207a17.693 17.693 0 005.106-14.961l-10.329-82.637a1057.406 1057.406 0 0091.793-70.781L421.77 498.379a17.77 17.77 0 0013.152 8.61c.758.093 1.52.14 2.281.14a17.856 17.856 0 0012.676-5.27l38.605-38.613a18.23 18.23 0 004.184-18.91l-23.27-63.617 29.516-29.52c10.457-10.55 10.457-27.558 0-38.11-10.676-10.144-27.43-10.14-38.105.005zm-19.063-57.16a8.996 8.996 0 0112.711-.004 8.741 8.741 0 012.57 6.465 8.618 8.618 0 01-2.57 6.238l-19.074 19.074-6.809-18.605zM238.496 52.676a8.51 8.51 0 016.477-2.574c2.324.05 4.55.968 6.23 2.578 3.5 3.515 3.5 9.195 0 12.707l-13.172 13.175-18.605-6.812zm-69.863-31.758a8.898 8.898 0 016.476-2.574 9.174 9.174 0 016.227 2.574 9.001 9.001 0 010 12.707L163.62 51.34l-18.601-6.805zM17.977 69.953l38.632-38.629 68.543 25.07c.137.06.27.098.41.149l36.883 13.492.207.074 126.856 46.403a1072.68 1072.68 0 00-19.242 18.734c-7.996 7.996-16.559 16.895-25.422 26.41L103.125 82.937a8.982 8.982 0 10-8.719 15.7l137.934 76.62a1314.337 1314.337 0 00-13.527 15.196zM37.98 316.715l13.24-13.195 73.984 9.246a364.606 364.606 0 00-19.82 35.398zm73.485 78.953c-3.852-3.852-1.66-14.941 5.637-31.176.148-.25.347-.449.476-.719.102-.226.082-.464.164-.695 18.52-40.316 67.528-111.164 135.102-183.871l.066-.07a1233.432 1233.432 0 0130.05-31.18C363.84 67.078 422.05 34.52 451.21 34.52a21.743 21.743 0 0115.95 5.457c18.352 18.351-7.613 83.82-107.98 184.191-83.075 83.07-169.125 144.094-215.196 165.238-.207.078-.418.055-.62.149-.18.086-.286.246-.462.34-16.379 7.398-27.566 9.636-31.437 5.77zm92.16 60.273l-13.195 13.223-31.453-67.406a364.862 364.862 0 0035.398-19.797zm233.566 33.227L316.684 288.32a1325.12 1325.12 0 0015.187-13.535l76.621 137.938a8.976 8.976 0 007.735 4.804 8.982 8.982 0 007.969-13.523L345.48 262.297c9.516-8.867 18.415-17.434 26.403-25.426a983.567 983.567 0 0018.734-19.242l46.418 126.937.028.067 13.554 37.07.074.2 25.102 68.636zm49.02-150.668l-23.613 23.617-6.805-18.605 17.719-17.715a9.25 9.25 0 0112.703 0 8.766 8.766 0 012.578 6.469 8.605 8.605 0 01-2.582 6.234zm0 0" data-original="#000000" class="active-path" data-old_color="#3a7bd5" fill="#3a7bd5"/></svg>