<svg xmlns="http://www.w3.org/2000/svg" viewBox="0 0 64 64" width="512" height="512"><path d="M64 7.217c0-1.928-.75-3.74-2.111-5.103A7.256 7.256 0 0056.79 0a7.155 7.155 0 00-5.096 2.114l-9.03 9.04-34.25-8.779a4.463 4.463 0 00-4.25 1.165L1.611 6.096a2.647 2.647 0 00-.747 2.211c.108.807.594 1.53 1.302 1.937l26.427 15.118L14.86 41.13l-8.21-1.925a4.426 4.426 0 00-4.173 1.192l-1.699 1.7a2.643 2.643 0 00-.724 2.412c.18.878.783 1.601 1.613 1.932l8.16 3.269c.66 2.584 2.182 4.117 4.534 4.567l3.196 7.994a2.728 2.728 0 001.995 1.672 2.724 2.724 0 002.492-.746l1.623-1.625a4.394 4.394 0 001.177-4.132l-1.929-8.247 15.75-13.746 15.01 26.301a2.793 2.793 0 002.037 1.37 2.79 2.79 0 002.325-.788l2.474-2.478a4.35 4.35 0 001.133-4.136L52.86 21.359l9.029-9.04A7.173 7.173 0 0064 7.216zM50.64 20.751l9.068 35.46a2.344 2.344 0 01-.61 2.228l-2.473 2.477a.769.769 0 01-1.213-.162l-15.615-27.36-1.525-.258-17.576 15.341 2.203 9.418a2.407 2.407 0 01-.645 2.264l-1.623 1.623a.733.733 0 01-.675.202.737.737 0 01-.539-.454l-3.633-9.087-.598-.064c-1.979-.213-3.064-1.323-3.518-3.598l-.105-.532-9.152-3.665a.651.651 0 01-.396-.477.65.65 0 01.18-.597l1.698-1.7a2.441 2.441 0 012.302-.657l9.383 2.2 15.325-17.597-.258-1.525L3.16 8.51a.636.636 0 01-.135-1L5.58 4.954a2.459 2.459 0 012.338-.641l35.356 9.061 9.836-9.846A5.168 5.168 0 0156.79 2c1.372 0 2.714.556 3.684 1.528A5.256 5.256 0 0162 7.217a5.255 5.255 0 01-1.527 3.688l-9.834 9.846z" data-original="#000000" class="active-path" data-old_color="#3a7bd5" fill="#3a7bd5"/></svg>