<svg xmlns="http://www.w3.org/2000/svg" width="512" height="512"><g fill="#FFF"><path d="M500.23 270.051h-74.54V212.66c0-6.501-5.271-11.77-11.77-11.77h-48.1l27.688-47.958 64.046 36.977a11.758 11.758 0 008.931 1.176 11.768 11.768 0 007.147-5.484l20.598-35.678a11.769 11.769 0 00-1.389-13.696C445.913 83.333 394.793 29.371 331.424 1.649a11.77 11.77 0 00-14.91 4.899l-38.253 66.256c-3.251 5.63-1.322 12.828 4.308 16.078l39.586 22.855-69.394 120.189-78.893-116.953-2.194-16.818a11.772 11.772 0 00-1.914-5.059l-29.837-44.232c-3.636-5.39-10.952-6.81-16.339-3.176l-53.66 36.193a11.772 11.772 0 00-3.177 16.34l29.837 44.232a11.765 11.765 0 003.968 3.665l14.769 8.345 77.97 115.587H147.67l-46.458-95.485c-2.845-5.845-9.89-8.277-15.733-5.434-5.845 2.845-8.278 9.888-5.434 15.733l41.447 85.186h-29.78l-18.556-42.205c-2.618-5.951-9.566-8.653-15.512-6.037-5.951 2.616-8.655 9.561-6.038 15.512l14.39 32.732H11.77c-6.5 0-11.77 5.269-11.77 11.77v64.736c0 6.501 5.271 11.77 11.77 11.77h20.598v141.241c0 6.501 5.271 11.77 11.77 11.77h423.724c6.499 0 11.77-5.269 11.77-11.77V358.328h20.598c6.5 0 11.77-5.269 11.77-11.77v-64.736c0-6.502-5.271-11.771-11.77-11.771zm-98.08-45.621v45.621h-76.259l26.338-45.621h49.921zM304.533 74.381l26.982-46.734c52.385 25.827 96.917 71.78 138.08 117.868l-10.464 18.122-154.598-89.256zm-40.799 185.632c.005-.008.007-.016.012-.025l78.799-136.482 30.578 17.654-74.412 128.89h-40.774l5.797-10.037zM133.285 139a11.775 11.775 0 00-3.968-3.665l-14.769-8.345-21.702-32.175 34.144-23.029 21.702 32.171 2.194 16.818a11.772 11.772 0 001.914 5.059l86.868 128.772-8.917 15.444h-9.063L133.285 139zm322.807 299.952h-48.846c-6.499 0-11.77 5.269-11.77 11.77s5.271 11.77 11.77 11.77h48.846v25.306H55.908v-25.306h48.846c6.499 0 11.77-5.269 11.77-11.77s-5.271-11.77-11.77-11.77H55.908v-80.625h135.356v41.195c0 6.501 5.271 11.77 11.77 11.77h105.931c6.499 0 11.77-5.269 11.77-11.77v-41.195h135.356v80.625zm-241.287-51.2v-29.425h82.391v29.425h-82.391zm273.655-52.965H23.54v-41.195h464.92v41.195z"/><path d="M149.677 438.952H148.5c-6.499 0-11.77 5.269-11.77 11.77s5.271 11.77 11.77 11.77h1.177c6.499 0 11.77-5.269 11.77-11.77s-5.271-11.77-11.77-11.77zm212.646 23.54h1.177c6.499 0 11.77-5.269 11.77-11.77s-5.271-11.77-11.77-11.77h-1.177c-6.499 0-11.77 5.269-11.77 11.77s5.271 11.77 11.77 11.77z"/></g></svg>