<svg xmlns="http://www.w3.org/2000/svg" width="512" height="512"><path d="M499.933 163.855L260.501 1.383a8.014 8.014 0 00-9.002 0L12.067 163.855a8.016 8.016 0 00-3.516 6.634v333.495a8.017 8.017 0 008.017 8.017h478.864a8.017 8.017 0 008.017-8.017V170.489a8.014 8.014 0 00-3.516-6.634zM196.676 495.967h-86.58v-86.58h18.171v43.29a8.017 8.017 0 008.017 8.017h34.205a8.017 8.017 0 008.017-8.017v-43.29h18.171v86.58zM92.994 205.228v-18.171h326.013v18.171H92.994zm51.307 239.432v-35.273h18.171v35.273h-18.171zm52.375-51.307h-86.581v-86.58h18.171v43.29a8.017 8.017 0 008.017 8.017h34.205a8.017 8.017 0 008.017-8.017v-43.29h18.171v86.58zm-52.375-51.307v-35.273h18.171v35.273h-18.171zM299.29 495.967h-86.58v-86.58h18.171v43.29a8.017 8.017 0 008.017 8.017h34.205a8.017 8.017 0 008.017-8.017v-43.29h18.171v86.58zm-52.376-51.307v-35.273h18.171v35.273h-18.171zm240.502 51.307h-69.478V324.409a8.017 8.017 0 00-8.017-8.017 8.017 8.017 0 00-8.017 8.017v171.557h-86.58V401.37a8.017 8.017 0 00-8.017-8.017H212.71v-94.597a8.017 8.017 0 00-8.017-8.017h-94.597v-69.478h291.808v68.944a8.017 8.017 0 008.017 8.017 8.017 8.017 0 008.017-8.017v-68.944h9.086a8.017 8.017 0 008.017-8.017V179.04a8.017 8.017 0 00-8.017-8.017H84.977a8.017 8.017 0 00-8.017 8.017v34.205a8.017 8.017 0 008.017 8.017h9.086v274.706H24.585V174.737L256 17.705l231.415 157.032v321.23z" fill="#093b95"/><path d="M290.205 68.409h-68.409a8.017 8.017 0 000 16.034h68.409c4.428 0 8.017-3.589 8.017-8.017s-3.589-8.017-8.017-8.017zm0 34.205h-68.409a8.017 8.017 0 000 16.034h68.409c4.428 0 8.017-3.589 8.017-8.017s-3.589-8.017-8.017-8.017zm0 34.204h-68.409a8.017 8.017 0 000 16.034h68.409c4.428 0 8.017-3.589 8.017-8.017s-3.589-8.017-8.017-8.017zM170.489 367.7h-34.205a8.017 8.017 0 000 16.034h34.205a8.017 8.017 0 000-16.034zm0 102.613h-34.205a8.017 8.017 0 000 16.034h34.205a8.017 8.017 0 000-16.034zm102.613 0h-34.205a8.017 8.017 0 000 16.034h34.205a8.017 8.017 0 008.017-8.017 8.017 8.017 0 00-8.017-8.017z" fill="#093b95"/></svg>